<?xml version="1.0" encoding="UTF-8"?>
<svg width="24px" height="24px" viewBox="0 0 24 24" version="1.1" xmlns="http://www.w3.org/2000/svg" xmlns:xlink="http://www.w3.org/1999/xlink">
    <title>menus-o</title>
    <g id="官网输出" stroke="none" stroke-width="1" fill="none" fill-rule="evenodd">
        <g id="手机端H5" transform="translate(-335.000000, -62.000000)" fill="#000000" fill-rule="nonzero">
            <g id="编组-20" transform="translate(0.000000, 44.000000)">
                <g id="menus-o" transform="translate(335.000000, 18.000000)">
                    <rect id="矩形" opacity="0" x="0" y="0" width="24" height="24"></rect>
                    <path d="M3,5.74999999 C3,5.33578643 3.33578644,4.99999999 3.75,4.99999999 L20.25,4.99999999 C20.6642136,4.99999999 21,5.33578643 21,5.74999999 C21,6.16421355 20.6642136,6.49999999 20.25,6.49999999 L3.75,6.49999999 C3.33578644,6.49999999 3,6.16421355 3,5.74999999 Z M3,12 C3,11.5857864 3.33578644,11.25 3.75,11.25 L20.25,11.25 C20.6642136,11.25 21,11.5857864 21,12 C21,12.4142136 20.6642136,12.75 20.25,12.75 L3.75,12.75 C3.33578644,12.75 3,12.4142136 3,12 Z M3,18.25 C3,17.8357864 3.33578644,17.5 3.75,17.5 L20.25,17.5 C20.6642136,17.5 21,17.8357864 21,18.25 C21,18.6642136 20.6642136,19 20.25,19 L3.75,19 C3.33578644,19 3,18.6642136 3,18.25 Z" id="形状"></path>
                </g>
            </g>
        </g>
    </g>
</svg>